# xmcd
#
# Track frame offsets: 
#        150
#        8794
#        22743
#        35551
#        47081
#        60323
#        73600
#        86079
#        97905
#        110020
#        122706
#        134241
#
# Disc length: 1949 seconds
#
# Revision: 0
# Processed by: cddbd v1.5.2PL0 Copyright (c) Steve Scherf et al.
# Submitted via: ExactAudioCopy v1.0b3
#
DISCID=9d079b0c
DTITLE=Various Artist - Sun Keeps Shining: Vintage Country
DYEAR=2004
DGENRE=Country
TTITLE0=Maddox Brothers and Rose - I've Got Four Big Brothers (To Look A
TTITLE0=fter Me)
TTITLE1=Lefty Frizzell - Always Late (With Your Kisses)
TTITLE2=Carl Smith - Let Old Mother Nature Have Her Way
TTITLE3=Ray Price - Crazy Arms
TTITLE4=George Morgan - Candy Kisses
TTITLE5=Joe Maphis and Rose Lee - Dim Lights, Thick Smoke (and Loud, Lou
TTITLE5=d Music)
TTITLE6=Floyd Tillman - Slipping Around
TTITLE7=Flatt and Scruggs - I'm Gonna Sleep With One Eye Open
TTITLE8=Marty Robbins - I'll Go on Alone
TTITLE9=Carl Story - Love Me Like You Used to Do
TTITLE10=Little Jimmy Dickens - We Could
TTITLE11=Al Dexter - Down at the Roadside Inn
EXTD=
EXTT0=
EXTT1=
EXTT2=
EXTT3=
EXTT4=
EXTT5=
EXTT6=
EXTT7=
EXTT8=
EXTT9=
EXTT10=
EXTT11=
PLAYORDER=
